# xmcd CD database file
# Copyright (C) 1997 Ti Kan
# 
# Track frame offsets:
#     183
#     12793
#     25473
#     38598
#     52028
#     64545
#     77663
#     90013
#     101913
#     112885
#     125763
#     140068
# 
# Disc length: 2037 seconds
# 
# Revision: 1
# Processed by: cddbd v1.4b41PL1 Copyright (c) Steve Scherf et al.
# Submitted via: DiscPlay 4.0.3
# 
DISCID=9507f30c
DTITLE=Hank Williams SR. - The Legend Lives Anew
DYEAR=1900
DGENRE=
TTITLE0=KAW-LIGA
TTITLE1=I'M SO LONESOME I COULD CRY
TTITLE2=A HOUSE WITHOUT LOVE
TTITLE3=WEDDING BELLS
TTITLE4=I'M SORRY FOR YOU, MY FRIEND
TTITLE5=A PICTURE FROM LIFE'S OTHER SIDE
TTITLE6=LOVESICK BLUES
TTITLE7=YOU WIN AGAIN
TTITLE8=LET'S TURN BACK THE YEARS
TTITLE9=THEY'LL NEVER TAKE HER LOVE FROM ME
TTITLE10=MEN WITH BROKEN HEARTS
TTITLE11=I DON'T CARE
EXTD=
EXTT0=
EXTT1=
EXTT2=
EXTT3=
EXTT4=
EXTT5=
EXTT6=
EXTT7=
EXTT8=
EXTT9=
EXTT10=
EXTT11=(IF TOMORROW NEVER COMES\n\n
PLAYORDER=
